<?xml version="1.0" encoding="UTF-8" standalone="no"?>
<!DOCTYPE svg PUBLIC "-//W3C//DTD SVG 1.1//EN"
 "http://www.w3.org/Graphics/SVG/1.1/DTD/svg11.dtd">
<!-- Generated by graphviz version 2.38.0 (20140413.2041)
 -->
<!-- Title: G Pages: 1 -->
<svg width="600pt" height="84pt"
 viewBox="0.00 0.00 599.50 84.00" xmlns="http://www.w3.org/2000/svg" xmlns:xlink="http://www.w3.org/1999/xlink">
<g id="graph0" class="graph" transform="scale(1 1) rotate(0) translate(4 80)">
<title>G</title>
<polygon fill="white" stroke="none" points="-4,4 -4,-80 595.5,-80 595.5,4 -4,4"/>
<!-- Node1 -->
<g id="node1" class="node"><title>Node1</title>
<polygon fill="#bfbfbf" stroke="black" points="310,-56.5 310,-75.5 357,-75.5 357,-56.5 310,-56.5"/>
<text text-anchor="middle" x="333.5" y="-63.5" font-family="Helvetica,sans-Serif" font-size="10.00">gmtp.h</text>
</g>
<!-- Node2 -->
<g id="node2" class="node"><title>Node2</title>
<polygon fill="white" stroke="#bfbfbf" points="0,-0.5 0,-19.5 125,-19.5 125,-0.5 0,-0.5"/>
<text text-anchor="middle" x="62.5" y="-7.5" font-family="Helvetica,sans-Serif" font-size="10.00">net/inet_timewait_sock.h</text>
</g>
<!-- Node1&#45;&gt;Node2 -->
<g id="edge1" class="edge"><title>Node1&#45;&gt;Node2</title>
<path fill="none" stroke="midnightblue" d="M309.925,-60.3023C266.831,-51.7155 174.373,-33.292 115.488,-21.5584"/>
<polygon fill="midnightblue" stroke="midnightblue" points="116.112,-18.1141 105.621,-19.5924 114.744,-24.9792 116.112,-18.1141"/>
</g>
<!-- Node3 -->
<g id="node3" class="node"><title>Node3</title>
<polygon fill="white" stroke="#bfbfbf" points="143.5,-0.5 143.5,-19.5 253.5,-19.5 253.5,-0.5 143.5,-0.5"/>
<text text-anchor="middle" x="198.5" y="-7.5" font-family="Helvetica,sans-Serif" font-size="10.00">net/inet_hashtables.h</text>
</g>
<!-- Node1&#45;&gt;Node3 -->
<g id="edge2" class="edge"><title>Node1&#45;&gt;Node3</title>
<path fill="none" stroke="midnightblue" d="M312.109,-56.4435C289.793,-47.5171 254.597,-33.4387 229.292,-23.3168"/>
<polygon fill="midnightblue" stroke="midnightblue" points="230.376,-19.9807 219.791,-19.5164 227.776,-26.4801 230.376,-19.9807"/>
</g>
<!-- Node4 -->
<g id="node4" class="node"><title>Node4</title>
<polygon fill="white" stroke="#bfbfbf" points="271.5,-0.5 271.5,-19.5 395.5,-19.5 395.5,-0.5 271.5,-0.5"/>
<text text-anchor="middle" x="333.5" y="-7.5" font-family="Helvetica,sans-Serif" font-size="10.00">uapi/asm&#45;generic/errno.h</text>
</g>
<!-- Node1&#45;&gt;Node4 -->
<g id="edge3" class="edge"><title>Node1&#45;&gt;Node4</title>
<path fill="none" stroke="midnightblue" d="M333.5,-56.083C333.5,-49.0059 333.5,-38.8611 333.5,-29.9865"/>
<polygon fill="midnightblue" stroke="midnightblue" points="337,-29.751 333.5,-19.7511 330,-29.7511 337,-29.751"/>
</g>
<!-- Node5 -->
<g id="node5" class="node"><title>Node5</title>
<polygon fill="white" stroke="#bfbfbf" points="413.5,-0.5 413.5,-19.5 483.5,-19.5 483.5,-0.5 413.5,-0.5"/>
<text text-anchor="middle" x="448.5" y="-7.5" font-family="Helvetica,sans-Serif" font-size="10.00">linux/gmtp.h</text>
</g>
<!-- Node1&#45;&gt;Node5 -->
<g id="edge4" class="edge"><title>Node1&#45;&gt;Node5</title>
<path fill="none" stroke="midnightblue" d="M351.722,-56.4435C370.396,-47.6751 399.656,-33.9355 421.117,-23.8579"/>
<polygon fill="midnightblue" stroke="midnightblue" points="422.799,-26.935 430.363,-19.5164 419.824,-20.5988 422.799,-26.935"/>
</g>
<!-- Node6 -->
<g id="node6" class="node"><title>Node6</title>
<polygon fill="white" stroke="#bfbfbf" points="501.5,-0.5 501.5,-19.5 591.5,-19.5 591.5,-0.5 501.5,-0.5"/>
<text text-anchor="middle" x="546.5" y="-7.5" font-family="Helvetica,sans-Serif" font-size="10.00">net/netns/gmtp.h</text>
</g>
<!-- Node1&#45;&gt;Node6 -->
<g id="edge5" class="edge"><title>Node1&#45;&gt;Node6</title>
<path fill="none" stroke="midnightblue" d="M357.109,-59.0147C392.179,-50.1237 458.632,-33.2763 502.752,-22.0911"/>
<polygon fill="midnightblue" stroke="midnightblue" points="503.797,-25.437 512.63,-19.5868 502.077,-18.6516 503.797,-25.437"/>
</g>
</g>
</svg>
