<?xml version="1.0" encoding="UTF-8" standalone="no"?>
<!DOCTYPE svg PUBLIC "-//W3C//DTD SVG 1.1//EN"
 "http://www.w3.org/Graphics/SVG/1.1/DTD/svg11.dtd">
<!-- Generated by graphviz version 2.38.0 (20140413.2041)
 -->
<!-- Title: G Pages: 1 -->
<svg width="222pt" height="66pt"
 viewBox="0.00 0.00 222.00 66.00" xmlns="http://www.w3.org/2000/svg" xmlns:xlink="http://www.w3.org/1999/xlink">
<g id="graph0" class="graph" transform="scale(1 1) rotate(0) translate(4 62)">
<title>G</title>
<polygon fill="white" stroke="none" points="-4,4 -4,-62 218,-62 218,4 -4,4"/>
<!-- Node1 -->
<g id="node1" class="node"><title>Node1</title>
<polygon fill="#bfbfbf" stroke="black" points="0,-19.5 0,-38.5 94,-38.5 94,-19.5 0,-19.5"/>
<text text-anchor="middle" x="47" y="-26.5" font-family="Helvetica,sans-Serif" font-size="10.00">gmtp_v4_connect</text>
</g>
<!-- Node2 -->
<g id="node2" class="node"><title>Node2</title>
<g id="a_node2"><a xlink:href="gmtp_8h.html#ad4d2e06e572fc5135a3a2636b629b8f2" target="_top" xlink:title="gmtp_set_state">
<polygon fill="white" stroke="black" points="130,-38.5 130,-57.5 214,-57.5 214,-38.5 130,-38.5"/>
<text text-anchor="middle" x="172" y="-45.5" font-family="Helvetica,sans-Serif" font-size="10.00">gmtp_set_state</text>
</a>
</g>
</g>
<!-- Node1&#45;&gt;Node2 -->
<g id="edge1" class="edge"><title>Node1&#45;&gt;Node2</title>
<path fill="none" stroke="midnightblue" d="M94.1506,-36.129C102.486,-37.4166 111.224,-38.7663 119.696,-40.0749"/>
<polygon fill="midnightblue" stroke="midnightblue" points="119.436,-43.5763 129.853,-41.644 120.505,-36.6583 119.436,-43.5763"/>
</g>
<!-- Node3 -->
<g id="node3" class="node"><title>Node3</title>
<g id="a_node3"><a xlink:href="gmtp_8h.html#a2df4bd07928440434f3ffc5e9a99e192" target="_top" xlink:title="gmtp_connect">
<polygon fill="white" stroke="black" points="133,-0.5 133,-19.5 211,-19.5 211,-0.5 133,-0.5"/>
<text text-anchor="middle" x="172" y="-7.5" font-family="Helvetica,sans-Serif" font-size="10.00">gmtp_connect</text>
</a>
</g>
</g>
<!-- Node1&#45;&gt;Node3 -->
<g id="edge2" class="edge"><title>Node1&#45;&gt;Node3</title>
<path fill="none" stroke="midnightblue" d="M94.1506,-21.871C103.462,-20.4327 113.275,-18.9169 122.659,-17.4674"/>
<polygon fill="midnightblue" stroke="midnightblue" points="123.28,-20.9129 132.629,-15.9273 122.212,-13.995 123.28,-20.9129"/>
</g>
</g>
</svg>
