<?xml version="1.0" encoding="UTF-8" standalone="no"?>
<!DOCTYPE svg PUBLIC "-//W3C//DTD SVG 1.1//EN"
 "http://www.w3.org/Graphics/SVG/1.1/DTD/svg11.dtd">
<!-- Generated by graphviz version 2.38.0 (20140413.2041)
 -->
<!-- Title: G Pages: 1 -->
<svg width="187pt" height="84pt"
 viewBox="0.00 0.00 187.00 84.00" xmlns="http://www.w3.org/2000/svg" xmlns:xlink="http://www.w3.org/1999/xlink">
<g id="graph0" class="graph" transform="scale(1 1) rotate(0) translate(4 80)">
<title>G</title>
<polygon fill="white" stroke="none" points="-4,4 -4,-80 183,-80 183,4 -4,4"/>
<!-- Node1 -->
<g id="node1" class="node"><title>Node1</title>
<polygon fill="#bfbfbf" stroke="black" points="64,-56.5 64,-75.5 111,-75.5 111,-56.5 64,-56.5"/>
<text text-anchor="middle" x="87.5" y="-63.5" font-family="Helvetica,sans-Serif" font-size="10.00">gmtp.h</text>
</g>
<!-- Node2 -->
<g id="node2" class="node"><title>Node2</title>
<g id="a_node2"><a xlink:href="ipv4_8c.html" target="_top" xlink:title="ipv4.c">
<polygon fill="white" stroke="black" points="0,-0.5 0,-19.5 43,-19.5 43,-0.5 0,-0.5"/>
<text text-anchor="middle" x="21.5" y="-7.5" font-family="Helvetica,sans-Serif" font-size="10.00">ipv4.c</text>
</a>
</g>
</g>
<!-- Node1&#45;&gt;Node2 -->
<g id="edge1" class="edge"><title>Node1&#45;&gt;Node2</title>
<path fill="none" stroke="midnightblue" d="M68.9463,-49.8197C57.1219,-40.1452 42.2144,-27.9481 32.297,-19.8339"/>
<polygon fill="midnightblue" stroke="midnightblue" points="66.94,-52.7004 76.896,-56.324 71.3727,-47.2827 66.94,-52.7004"/>
</g>
<!-- Node3 -->
<g id="node3" class="node"><title>Node3</title>
<g id="a_node3"><a xlink:href="output_8c.html" target="_top" xlink:title="output.c">
<polygon fill="white" stroke="black" points="61.5,-0.5 61.5,-19.5 113.5,-19.5 113.5,-0.5 61.5,-0.5"/>
<text text-anchor="middle" x="87.5" y="-7.5" font-family="Helvetica,sans-Serif" font-size="10.00">output.c</text>
</a>
</g>
</g>
<!-- Node1&#45;&gt;Node3 -->
<g id="edge2" class="edge"><title>Node1&#45;&gt;Node3</title>
<path fill="none" stroke="midnightblue" d="M87.5,-45.8045C87.5,-36.9102 87.5,-26.7798 87.5,-19.7511"/>
<polygon fill="midnightblue" stroke="midnightblue" points="84.0001,-46.083 87.5,-56.083 91.0001,-46.083 84.0001,-46.083"/>
</g>
<!-- Node4 -->
<g id="node4" class="node"><title>Node4</title>
<g id="a_node4"><a xlink:href="proto_8c.html" target="_top" xlink:title="proto.c">
<polygon fill="white" stroke="black" points="132,-0.5 132,-19.5 179,-19.5 179,-0.5 132,-0.5"/>
<text text-anchor="middle" x="155.5" y="-7.5" font-family="Helvetica,sans-Serif" font-size="10.00">proto.c</text>
</a>
</g>
</g>
<!-- Node1&#45;&gt;Node4 -->
<g id="edge3" class="edge"><title>Node1&#45;&gt;Node4</title>
<path fill="none" stroke="midnightblue" d="M106.262,-50.1008C118.5,-40.3824 134.059,-28.0269 144.376,-19.8339"/>
<polygon fill="midnightblue" stroke="midnightblue" points="104.08,-47.3642 98.4254,-56.324 108.433,-52.846 104.08,-47.3642"/>
</g>
</g>
</svg>
