<?xml version="1.0" encoding="UTF-8" standalone="no"?>
<!DOCTYPE svg PUBLIC "-//W3C//DTD SVG 1.1//EN"
 "http://www.w3.org/Graphics/SVG/1.1/DTD/svg11.dtd">
<!-- Generated by graphviz version 2.38.0 (20140413.2041)
 -->
<!-- Title: G Pages: 1 -->
<svg width="1491pt" height="140pt"
 viewBox="0.00 0.00 1491.00 140.00" xmlns="http://www.w3.org/2000/svg" xmlns:xlink="http://www.w3.org/1999/xlink">
<g id="graph0" class="graph" transform="scale(1 1) rotate(0) translate(4 136)">
<title>G</title>
<polygon fill="white" stroke="none" points="-4,4 -4,-136 1487,-136 1487,4 -4,4"/>
<!-- Node1 -->
<g id="node1" class="node"><title>Node1</title>
<polygon fill="#bfbfbf" stroke="black" points="607,-112.5 607,-131.5 650,-131.5 650,-112.5 607,-112.5"/>
<text text-anchor="middle" x="628.5" y="-119.5" font-family="Helvetica,sans-Serif" font-size="10.00">ipv4.c</text>
</g>
<!-- Node2 -->
<g id="node2" class="node"><title>Node2</title>
<polygon fill="white" stroke="#bfbfbf" points="0,-56.5 0,-75.5 61,-75.5 61,-56.5 0,-56.5"/>
<text text-anchor="middle" x="30.5" y="-63.5" font-family="Helvetica,sans-Serif" font-size="10.00">linux/init.h</text>
</g>
<!-- Node1&#45;&gt;Node2 -->
<g id="edge1" class="edge"><title>Node1&#45;&gt;Node2</title>
<path fill="none" stroke="midnightblue" d="M606.83,-120.35C533.185,-117.912 285.704,-107.842 71.5968,-75.946"/>
<polygon fill="midnightblue" stroke="midnightblue" points="71.8377,-72.4428 61.4272,-74.4106 70.7926,-79.3644 71.8377,-72.4428"/>
</g>
<!-- Node3 -->
<g id="node3" class="node"><title>Node3</title>
<polygon fill="white" stroke="#bfbfbf" points="79.5,-56.5 79.5,-75.5 159.5,-75.5 159.5,-56.5 79.5,-56.5"/>
<text text-anchor="middle" x="119.5" y="-63.5" font-family="Helvetica,sans-Serif" font-size="10.00">linux/module.h</text>
</g>
<!-- Node1&#45;&gt;Node3 -->
<g id="edge2" class="edge"><title>Node1&#45;&gt;Node3</title>
<path fill="none" stroke="midnightblue" d="M606.868,-119.534C542.162,-115.012 344.294,-100.191 169.707,-76.0588"/>
<polygon fill="midnightblue" stroke="midnightblue" points="169.955,-72.5595 159.567,-74.6429 168.987,-79.4923 169.955,-72.5595"/>
</g>
<!-- Node4 -->
<g id="node4" class="node"><title>Node4</title>
<polygon fill="white" stroke="#bfbfbf" points="178,-56.5 178,-75.5 237,-75.5 237,-56.5 178,-56.5"/>
<text text-anchor="middle" x="207.5" y="-63.5" font-family="Helvetica,sans-Serif" font-size="10.00">linux/err.h</text>
</g>
<!-- Node1&#45;&gt;Node4 -->
<g id="edge3" class="edge"><title>Node1&#45;&gt;Node4</title>
<path fill="none" stroke="midnightblue" d="M606.841,-119.286C549.766,-114.593 390.399,-100.352 247.501,-75.9886"/>
<polygon fill="midnightblue" stroke="midnightblue" points="247.692,-72.4699 237.242,-74.217 246.501,-79.3678 247.692,-72.4699"/>
</g>
<!-- Node5 -->
<g id="node5" class="node"><title>Node5</title>
<polygon fill="white" stroke="#bfbfbf" points="255.5,-56.5 255.5,-75.5 325.5,-75.5 325.5,-56.5 255.5,-56.5"/>
<text text-anchor="middle" x="290.5" y="-63.5" font-family="Helvetica,sans-Serif" font-size="10.00">linux/errno.h</text>
</g>
<!-- Node1&#45;&gt;Node5 -->
<g id="edge4" class="edge"><title>Node1&#45;&gt;Node5</title>
<path fill="none" stroke="midnightblue" d="M606.715,-117.815C558.496,-110.719 439.125,-92.9023 339.5,-76 338.229,-75.7843 336.94,-75.5633 335.639,-75.3382"/>
<polygon fill="midnightblue" stroke="midnightblue" points="336,-71.8478 325.543,-73.556 334.783,-78.7412 336,-71.8478"/>
</g>
<!-- Node6 -->
<g id="node6" class="node"><title>Node6</title>
<polygon fill="white" stroke="#bfbfbf" points="228.5,-0.5 228.5,-19.5 338.5,-19.5 338.5,-0.5 228.5,-0.5"/>
<text text-anchor="middle" x="283.5" y="-7.5" font-family="Helvetica,sans-Serif" font-size="10.00">net/inet_hashtables.h</text>
</g>
<!-- Node1&#45;&gt;Node6 -->
<g id="edge5" class="edge"><title>Node1&#45;&gt;Node6</title>
<path fill="none" stroke="midnightblue" d="M606.865,-119.304C564.773,-115.474 469.422,-104.19 394.5,-76 360.483,-63.201 324.856,-40.4048 303.414,-25.4956"/>
<polygon fill="midnightblue" stroke="midnightblue" points="305.324,-22.5597 295.139,-19.641 301.281,-28.274 305.324,-22.5597"/>
</g>
<!-- Node7 -->
<g id="node7" class="node"><title>Node7</title>
<polygon fill="white" stroke="#bfbfbf" points="485.5,-56.5 485.5,-75.5 585.5,-75.5 585.5,-56.5 485.5,-56.5"/>
<text text-anchor="middle" x="535.5" y="-63.5" font-family="Helvetica,sans-Serif" font-size="10.00">net/inet_common.h</text>
</g>
<!-- Node1&#45;&gt;Node7 -->
<g id="edge6" class="edge"><title>Node1&#45;&gt;Node7</title>
<path fill="none" stroke="midnightblue" d="M613.558,-112.324C598.915,-103.822 576.366,-90.7288 559.262,-80.7975"/>
<polygon fill="midnightblue" stroke="midnightblue" points="560.81,-77.6491 550.405,-75.6545 557.295,-83.7027 560.81,-77.6491"/>
</g>
<!-- Node8 -->
<g id="node8" class="node"><title>Node8</title>
<polygon fill="white" stroke="#bfbfbf" points="604,-56.5 604,-75.5 653,-75.5 653,-56.5 604,-56.5"/>
<text text-anchor="middle" x="628.5" y="-63.5" font-family="Helvetica,sans-Serif" font-size="10.00">net/ip.h</text>
</g>
<!-- Node1&#45;&gt;Node8 -->
<g id="edge7" class="edge"><title>Node1&#45;&gt;Node8</title>
<path fill="none" stroke="midnightblue" d="M628.5,-112.083C628.5,-105.006 628.5,-94.8611 628.5,-85.9865"/>
<polygon fill="midnightblue" stroke="midnightblue" points="632,-85.751 628.5,-75.7511 625,-85.7511 632,-85.751"/>
</g>
<!-- Node9 -->
<g id="node9" class="node"><title>Node9</title>
<polygon fill="white" stroke="#bfbfbf" points="671.5,-56.5 671.5,-75.5 747.5,-75.5 747.5,-56.5 671.5,-56.5"/>
<text text-anchor="middle" x="709.5" y="-63.5" font-family="Helvetica,sans-Serif" font-size="10.00">net/protocol.h</text>
</g>
<!-- Node1&#45;&gt;Node9 -->
<g id="edge8" class="edge"><title>Node1&#45;&gt;Node9</title>
<path fill="none" stroke="midnightblue" d="M641.514,-112.324C654.032,-103.979 673.182,-91.2122 687.971,-81.3524"/>
<polygon fill="midnightblue" stroke="midnightblue" points="690.139,-84.1137 696.518,-75.6545 686.256,-78.2894 690.139,-84.1137"/>
</g>
<!-- Node10 -->
<g id="node10" class="node"><title>Node10</title>
<polygon fill="white" stroke="#bfbfbf" points="765.5,-56.5 765.5,-75.5 865.5,-75.5 865.5,-56.5 765.5,-56.5"/>
<text text-anchor="middle" x="815.5" y="-63.5" font-family="Helvetica,sans-Serif" font-size="10.00">net/request_sock.h</text>
</g>
<!-- Node1&#45;&gt;Node10 -->
<g id="edge9" class="edge"><title>Node1&#45;&gt;Node10</title>
<path fill="none" stroke="midnightblue" d="M650.317,-114.7C681.095,-105.812 737.77,-89.446 776.045,-78.3933"/>
<polygon fill="midnightblue" stroke="midnightblue" points="777.197,-81.7037 785.834,-75.5667 775.255,-74.9785 777.197,-81.7037"/>
</g>
<!-- Node11 -->
<g id="node11" class="node"><title>Node11</title>
<polygon fill="white" stroke="#bfbfbf" points="883.5,-56.5 883.5,-75.5 945.5,-75.5 945.5,-56.5 883.5,-56.5"/>
<text text-anchor="middle" x="914.5" y="-63.5" font-family="Helvetica,sans-Serif" font-size="10.00">net/sock.h</text>
</g>
<!-- Node1&#45;&gt;Node11 -->
<g id="edge10" class="edge"><title>Node1&#45;&gt;Node11</title>
<path fill="none" stroke="midnightblue" d="M650.276,-117.321C691.698,-110.258 784.908,-94.0539 873.179,-76.2082"/>
<polygon fill="midnightblue" stroke="midnightblue" points="873.981,-79.617 883.083,-74.1947 872.586,-72.7573 873.981,-79.617"/>
</g>
<!-- Node12 -->
<g id="node12" class="node"><title>Node12</title>
<polygon fill="white" stroke="#bfbfbf" points="964,-56.5 964,-75.5 1025,-75.5 1025,-56.5 964,-56.5"/>
<text text-anchor="middle" x="994.5" y="-63.5" font-family="Helvetica,sans-Serif" font-size="10.00">net/xfrm.h</text>
</g>
<!-- Node1&#45;&gt;Node12 -->
<g id="edge11" class="edge"><title>Node1&#45;&gt;Node12</title>
<path fill="none" stroke="midnightblue" d="M650.347,-118.628C701.499,-112.938 833.19,-97.5023 953.833,-75.9749"/>
<polygon fill="midnightblue" stroke="midnightblue" points="954.759,-79.3644 963.979,-74.145 953.517,-72.4755 954.759,-79.3644"/>
</g>
<!-- Node13 -->
<g id="node13" class="node"><title>Node13</title>
<polygon fill="white" stroke="#bfbfbf" points="1043.5,-56.5 1043.5,-75.5 1135.5,-75.5 1135.5,-56.5 1043.5,-56.5"/>
<text text-anchor="middle" x="1089.5" y="-63.5" font-family="Helvetica,sans-Serif" font-size="10.00">net/secure_seq.h</text>
</g>
<!-- Node1&#45;&gt;Node13 -->
<g id="edge12" class="edge"><title>Node1&#45;&gt;Node13</title>
<path fill="none" stroke="midnightblue" d="M650.116,-119.002C709.52,-113.428 880.448,-96.8248 1033.27,-76.1066"/>
<polygon fill="midnightblue" stroke="midnightblue" points="1033.88,-79.5567 1043.31,-74.7361 1032.93,-72.621 1033.88,-79.5567"/>
</g>
<!-- Node14 -->
<g id="node14" class="node"><title>Node14</title>
<polygon fill="white" stroke="#bfbfbf" points="1154,-56.5 1154,-75.5 1263,-75.5 1263,-56.5 1154,-56.5"/>
<text text-anchor="middle" x="1208.5" y="-63.5" font-family="Helvetica,sans-Serif" font-size="10.00">uapi/linux/if_packet.h</text>
</g>
<!-- Node1&#45;&gt;Node14 -->
<g id="edge13" class="edge"><title>Node1&#45;&gt;Node14</title>
<path fill="none" stroke="midnightblue" d="M650.17,-119.521C720.007,-114.669 945.636,-98.321 1143.7,-76.0321"/>
<polygon fill="midnightblue" stroke="midnightblue" points="1144.17,-79.5019 1153.71,-74.8982 1143.38,-72.5465 1144.17,-79.5019"/>
</g>
<!-- Node15 -->
<g id="node15" class="node"><title>Node15</title>
<polygon fill="white" stroke="#bfbfbf" points="1281,-56.5 1281,-75.5 1374,-75.5 1374,-56.5 1281,-56.5"/>
<text text-anchor="middle" x="1327.5" y="-63.5" font-family="Helvetica,sans-Serif" font-size="10.00">uapi/linux/snmp.h</text>
</g>
<!-- Node1&#45;&gt;Node15 -->
<g id="edge14" class="edge"><title>Node1&#45;&gt;Node15</title>
<path fill="none" stroke="midnightblue" d="M650.249,-120.21C731.011,-117.126 1021.46,-104.673 1270.76,-76.108"/>
<polygon fill="midnightblue" stroke="midnightblue" points="1271.2,-79.5808 1280.73,-74.9545 1270.4,-72.6272 1271.2,-79.5808"/>
</g>
<!-- Node16 -->
<g id="node16" class="node"><title>Node16</title>
<polygon fill="white" stroke="#bfbfbf" points="1392,-56.5 1392,-75.5 1483,-75.5 1483,-56.5 1392,-56.5"/>
<text text-anchor="middle" x="1437.5" y="-63.5" font-family="Helvetica,sans-Serif" font-size="10.00">uapi/linux/gmtp.h</text>
</g>
<!-- Node1&#45;&gt;Node16 -->
<g id="edge15" class="edge"><title>Node1&#45;&gt;Node16</title>
<path fill="none" stroke="midnightblue" d="M650.193,-120.545C739.372,-118.5 1086.56,-108.826 1381.84,-76.0757"/>
<polygon fill="midnightblue" stroke="midnightblue" points="1382.33,-79.5425 1391.88,-74.9508 1381.55,-72.5861 1382.33,-79.5425"/>
</g>
<!-- Node17 -->
<g id="node17" class="node"><title>Node17</title>
<polygon fill="white" stroke="#bfbfbf" points="356.5,-0.5 356.5,-19.5 426.5,-19.5 426.5,-0.5 356.5,-0.5"/>
<text text-anchor="middle" x="391.5" y="-7.5" font-family="Helvetica,sans-Serif" font-size="10.00">linux/gmtp.h</text>
</g>
<!-- Node1&#45;&gt;Node17 -->
<g id="edge16" class="edge"><title>Node1&#45;&gt;Node17</title>
<path fill="none" stroke="midnightblue" d="M606.715,-119.265C557.562,-114.925 440.097,-102.027 411.5,-76 398.558,-64.2209 393.898,-44.2924 392.268,-29.5997"/>
<polygon fill="midnightblue" stroke="midnightblue" points="395.757,-29.3195 391.525,-19.6064 388.776,-29.8383 395.757,-29.3195"/>
</g>
<!-- Node18 -->
<g id="node18" class="node"><title>Node18</title>
<g id="a_node18"><a xlink:href="gmtp_8h.html" target="_top" xlink:title="gmtp.h">
<polygon fill="white" stroke="black" points="420,-56.5 420,-75.5 467,-75.5 467,-56.5 420,-56.5"/>
<text text-anchor="middle" x="443.5" y="-63.5" font-family="Helvetica,sans-Serif" font-size="10.00">gmtp.h</text>
</a>
</g>
</g>
<!-- Node1&#45;&gt;Node18 -->
<g id="edge17" class="edge"><title>Node1&#45;&gt;Node18</title>
<path fill="none" stroke="midnightblue" d="M606.916,-114.7C575.029,-105.392 515.043,-87.8827 477.292,-76.8636"/>
<polygon fill="midnightblue" stroke="midnightblue" points="477.856,-73.3822 467.276,-73.94 475.895,-80.1018 477.856,-73.3822"/>
</g>
<!-- Node18&#45;&gt;Node6 -->
<g id="edge19" class="edge"><title>Node18&#45;&gt;Node6</title>
<path fill="none" stroke="midnightblue" d="M419.891,-57.0321C393.066,-47.9784 349.028,-33.1156 318.272,-22.7356"/>
<polygon fill="midnightblue" stroke="midnightblue" points="319.386,-19.4176 308.792,-19.536 317.147,-26.05 319.386,-19.4176"/>
</g>
<!-- Node18&#45;&gt;Node17 -->
<g id="edge21" class="edge"><title>Node18&#45;&gt;Node17</title>
<path fill="none" stroke="midnightblue" d="M434.913,-56.083C427.341,-48.2195 416.122,-36.5688 406.986,-27.0813"/>
<polygon fill="midnightblue" stroke="midnightblue" points="409.385,-24.5266 399.927,-19.7511 404.342,-29.3821 409.385,-24.5266"/>
</g>
<!-- Node19 -->
<g id="node19" class="node"><title>Node19</title>
<polygon fill="white" stroke="#bfbfbf" points="445,-0.5 445,-19.5 570,-19.5 570,-0.5 445,-0.5"/>
<text text-anchor="middle" x="507.5" y="-7.5" font-family="Helvetica,sans-Serif" font-size="10.00">net/inet_timewait_sock.h</text>
</g>
<!-- Node18&#45;&gt;Node19 -->
<g id="edge18" class="edge"><title>Node18&#45;&gt;Node19</title>
<path fill="none" stroke="midnightblue" d="M453.783,-56.324C463.336,-48.2631 477.78,-36.0765 489.284,-26.3695"/>
<polygon fill="midnightblue" stroke="midnightblue" points="491.644,-28.9577 497.03,-19.8339 487.13,-23.6076 491.644,-28.9577"/>
</g>
<!-- Node20 -->
<g id="node20" class="node"><title>Node20</title>
<polygon fill="white" stroke="#bfbfbf" points="588.5,-0.5 588.5,-19.5 712.5,-19.5 712.5,-0.5 588.5,-0.5"/>
<text text-anchor="middle" x="650.5" y="-7.5" font-family="Helvetica,sans-Serif" font-size="10.00">uapi/asm&#45;generic/errno.h</text>
</g>
<!-- Node18&#45;&gt;Node20 -->
<g id="edge20" class="edge"><title>Node18&#45;&gt;Node20</title>
<path fill="none" stroke="midnightblue" d="M467.283,-58.4736C470.382,-57.635 473.516,-56.7929 476.5,-56 520.827,-44.2241 571.615,-31.1354 606.831,-22.1239"/>
<polygon fill="midnightblue" stroke="midnightblue" points="607.962,-25.4474 616.784,-19.5796 606.228,-18.6655 607.962,-25.4474"/>
</g>
<!-- Node21 -->
<g id="node21" class="node"><title>Node21</title>
<polygon fill="white" stroke="#bfbfbf" points="730.5,-0.5 730.5,-19.5 820.5,-19.5 820.5,-0.5 730.5,-0.5"/>
<text text-anchor="middle" x="775.5" y="-7.5" font-family="Helvetica,sans-Serif" font-size="10.00">net/netns/gmtp.h</text>
</g>
<!-- Node18&#45;&gt;Node21 -->
<g id="edge22" class="edge"><title>Node18&#45;&gt;Node21</title>
<path fill="none" stroke="midnightblue" d="M467.21,-58.1669C470.321,-57.3784 473.477,-56.6319 476.5,-56 581.073,-34.1399 611.03,-36.8609 720.313,-20.1462"/>
<polygon fill="midnightblue" stroke="midnightblue" points="721.083,-23.5687 730.429,-18.5784 720.011,-16.6513 721.083,-23.5687"/>
</g>
</g>
</svg>
