<?xml version="1.0" encoding="UTF-8" standalone="no"?>
<!DOCTYPE svg PUBLIC "-//W3C//DTD SVG 1.1//EN"
 "http://www.w3.org/Graphics/SVG/1.1/DTD/svg11.dtd">
<!-- Generated by graphviz version 2.38.0 (20140413.2041)
 -->
<!-- Title: G Pages: 1 -->
<svg width="257pt" height="66pt"
 viewBox="0.00 0.00 257.00 66.00" xmlns="http://www.w3.org/2000/svg" xmlns:xlink="http://www.w3.org/1999/xlink">
<g id="graph0" class="graph" transform="scale(1 1) rotate(0) translate(4 62)">
<title>G</title>
<polygon fill="white" stroke="none" points="-4,4 -4,-62 253,-62 253,4 -4,4"/>
<!-- Node1 -->
<g id="node1" class="node"><title>Node1</title>
<polygon fill="#bfbfbf" stroke="black" points="0,-19.5 0,-38.5 89,-38.5 89,-19.5 0,-19.5"/>
<text text-anchor="middle" x="44.5" y="-26.5" font-family="Helvetica,sans-Serif" font-size="10.00">gmtp_v4_do_rcv</text>
</g>
<!-- Node2 -->
<g id="node2" class="node"><title>Node2</title>
<g id="a_node2"><a xlink:href="gmtp_8h.html#a3d9324eca652acd36308327a06050473" target="_top" xlink:title="gmtp_rcv_established">
<polygon fill="white" stroke="black" points="131,-38.5 131,-57.5 243,-57.5 243,-38.5 131,-38.5"/>
<text text-anchor="middle" x="187" y="-45.5" font-family="Helvetica,sans-Serif" font-size="10.00">gmtp_rcv_established</text>
</a>
</g>
</g>
<!-- Node1&#45;&gt;Node2 -->
<g id="edge1" class="edge"><title>Node1&#45;&gt;Node2</title>
<path fill="none" stroke="midnightblue" d="M89.1849,-34.9076C99.1964,-36.2614 110.052,-37.7295 120.752,-39.1764"/>
<polygon fill="midnightblue" stroke="midnightblue" points="120.552,-42.6811 130.931,-40.5529 121.49,-35.7443 120.552,-42.6811"/>
</g>
<!-- Node3 -->
<g id="node3" class="node"><title>Node3</title>
<g id="a_node3"><a xlink:href="gmtp_8h.html#a212e85de01d9dd2c64578b4a61020f18" target="_top" xlink:title="gmtp_rcv_state_process">
<polygon fill="white" stroke="black" points="125,-0.5 125,-19.5 249,-19.5 249,-0.5 125,-0.5"/>
<text text-anchor="middle" x="187" y="-7.5" font-family="Helvetica,sans-Serif" font-size="10.00">gmtp_rcv_state_process</text>
</a>
</g>
</g>
<!-- Node1&#45;&gt;Node3 -->
<g id="edge2" class="edge"><title>Node1&#45;&gt;Node3</title>
<path fill="none" stroke="midnightblue" d="M89.1849,-23.0924C97.2907,-21.9963 105.95,-20.8253 114.632,-19.6512"/>
<polygon fill="midnightblue" stroke="midnightblue" points="115.362,-23.0844 124.803,-18.2758 114.424,-16.1476 115.362,-23.0844"/>
</g>
</g>
</svg>
