<?xml version="1.0" encoding="UTF-8" standalone="no"?>
<!DOCTYPE svg PUBLIC "-//W3C//DTD SVG 1.1//EN"
 "http://www.w3.org/Graphics/SVG/1.1/DTD/svg11.dtd">
<!-- Generated by graphviz version 2.38.0 (20140413.2041)
 -->
<!-- Title: G Pages: 1 -->
<svg width="899pt" height="140pt"
 viewBox="0.00 0.00 899.00 140.00" xmlns="http://www.w3.org/2000/svg" xmlns:xlink="http://www.w3.org/1999/xlink">
<g id="graph0" class="graph" transform="scale(1 1) rotate(0) translate(4 136)">
<title>G</title>
<polygon fill="white" stroke="none" points="-4,4 -4,-136 895,-136 895,4 -4,4"/>
<!-- Node1 -->
<g id="node1" class="node"><title>Node1</title>
<polygon fill="#bfbfbf" stroke="black" points="286,-112.5 286,-131.5 338,-131.5 338,-112.5 286,-112.5"/>
<text text-anchor="middle" x="312" y="-119.5" font-family="Helvetica,sans-Serif" font-size="10.00">output.c</text>
</g>
<!-- Node2 -->
<g id="node2" class="node"><title>Node2</title>
<polygon fill="white" stroke="#bfbfbf" points="0,-56.5 0,-75.5 74,-75.5 74,-56.5 0,-56.5"/>
<text text-anchor="middle" x="37" y="-63.5" font-family="Helvetica,sans-Serif" font-size="10.00">linux/kernel.h</text>
</g>
<!-- Node1&#45;&gt;Node2 -->
<g id="edge1" class="edge"><title>Node1&#45;&gt;Node2</title>
<path fill="none" stroke="midnightblue" d="M285.632,-115.822C239.216,-106.708 142.335,-87.684 84.1599,-76.2605"/>
<polygon fill="midnightblue" stroke="midnightblue" points="84.606,-72.7813 74.119,-74.2888 83.2572,-79.6502 84.606,-72.7813"/>
</g>
<!-- Node3 -->
<g id="node3" class="node"><title>Node3</title>
<polygon fill="white" stroke="#bfbfbf" points="92.5,-56.5 92.5,-75.5 167.5,-75.5 167.5,-56.5 92.5,-56.5"/>
<text text-anchor="middle" x="130" y="-63.5" font-family="Helvetica,sans-Serif" font-size="10.00">linux/skbuff.h</text>
</g>
<!-- Node1&#45;&gt;Node3 -->
<g id="edge2" class="edge"><title>Node1&#45;&gt;Node3</title>
<path fill="none" stroke="midnightblue" d="M285.924,-113.263C255.239,-104.159 204.005,-88.9575 168.688,-78.479"/>
<polygon fill="midnightblue" stroke="midnightblue" points="169.313,-75.0135 158.73,-75.5243 167.322,-81.7243 169.313,-75.0135"/>
</g>
<!-- Node4 -->
<g id="node4" class="node"><title>Node4</title>
<polygon fill="white" stroke="#bfbfbf" points="186,-56.5 186,-75.5 252,-75.5 252,-56.5 186,-56.5"/>
<text text-anchor="middle" x="219" y="-63.5" font-family="Helvetica,sans-Serif" font-size="10.00">linux/slab.h</text>
</g>
<!-- Node1&#45;&gt;Node4 -->
<g id="edge3" class="edge"><title>Node1&#45;&gt;Node4</title>
<path fill="none" stroke="midnightblue" d="M297.058,-112.324C282.415,-103.822 259.866,-90.7288 242.762,-80.7975"/>
<polygon fill="midnightblue" stroke="midnightblue" points="244.31,-77.6491 233.905,-75.6545 240.795,-83.7027 244.31,-77.6491"/>
</g>
<!-- Node5 -->
<g id="node5" class="node"><title>Node5</title>
<polygon fill="white" stroke="#bfbfbf" points="263,-0.5 263,-19.5 333,-19.5 333,-0.5 263,-0.5"/>
<text text-anchor="middle" x="298" y="-7.5" font-family="Helvetica,sans-Serif" font-size="10.00">linux/gmtp.h</text>
</g>
<!-- Node1&#45;&gt;Node5 -->
<g id="edge4" class="edge"><title>Node1&#45;&gt;Node5</title>
<path fill="none" stroke="midnightblue" d="M308.698,-112.191C305.52,-103.229 300.923,-88.8683 299,-76 296.704,-60.6328 296.588,-42.9955 296.972,-29.974"/>
<polygon fill="midnightblue" stroke="midnightblue" points="300.473,-30.0302 297.395,-19.8921 293.479,-29.7365 300.473,-30.0302"/>
</g>
<!-- Node6 -->
<g id="node6" class="node"><title>Node6</title>
<polygon fill="white" stroke="#bfbfbf" points="308,-56.5 308,-75.5 380,-75.5 380,-56.5 308,-56.5"/>
<text text-anchor="middle" x="344" y="-63.5" font-family="Helvetica,sans-Serif" font-size="10.00">linux/types.h</text>
</g>
<!-- Node1&#45;&gt;Node6 -->
<g id="edge5" class="edge"><title>Node1&#45;&gt;Node6</title>
<path fill="none" stroke="midnightblue" d="M317.284,-112.083C321.711,-104.613 328.163,-93.7244 333.618,-84.5199"/>
<polygon fill="midnightblue" stroke="midnightblue" points="336.727,-86.1383 338.814,-75.7511 330.705,-82.5697 336.727,-86.1383"/>
</g>
<!-- Node7 -->
<g id="node7" class="node"><title>Node7</title>
<polygon fill="white" stroke="#bfbfbf" points="398.5,-56.5 398.5,-75.5 481.5,-75.5 481.5,-56.5 398.5,-56.5"/>
<text text-anchor="middle" x="440" y="-63.5" font-family="Helvetica,sans-Serif" font-size="10.00">net/inet_sock.h</text>
</g>
<!-- Node1&#45;&gt;Node7 -->
<g id="edge6" class="edge"><title>Node1&#45;&gt;Node7</title>
<path fill="none" stroke="midnightblue" d="M332.282,-112.444C353.347,-103.557 386.517,-89.5632 410.486,-79.4514"/>
<polygon fill="midnightblue" stroke="midnightblue" points="411.96,-82.6283 419.813,-75.5164 409.239,-76.1787 411.96,-82.6283"/>
</g>
<!-- Node8 -->
<g id="node8" class="node"><title>Node8</title>
<polygon fill="white" stroke="#bfbfbf" points="500,-56.5 500,-75.5 562,-75.5 562,-56.5 500,-56.5"/>
<text text-anchor="middle" x="531" y="-63.5" font-family="Helvetica,sans-Serif" font-size="10.00">net/sock.h</text>
</g>
<!-- Node1&#45;&gt;Node8 -->
<g id="edge7" class="edge"><title>Node1&#45;&gt;Node8</title>
<path fill="none" stroke="midnightblue" d="M338.417,-114.486C376.095,-105.196 445.614,-88.0542 490.012,-77.1066"/>
<polygon fill="midnightblue" stroke="midnightblue" points="491.032,-80.46 499.903,-74.6677 489.356,-73.6636 491.032,-80.46"/>
</g>
<!-- Node9 -->
<g id="node9" class="node"><title>Node9</title>
<g id="a_node9"><a xlink:href="gmtp_8h.html" target="_top" xlink:title="gmtp.h">
<polygon fill="white" stroke="black" points="580.5,-56.5 580.5,-75.5 627.5,-75.5 627.5,-56.5 580.5,-56.5"/>
<text text-anchor="middle" x="604" y="-63.5" font-family="Helvetica,sans-Serif" font-size="10.00">gmtp.h</text>
</a>
</g>
</g>
<!-- Node1&#45;&gt;Node9 -->
<g id="edge8" class="edge"><title>Node1&#45;&gt;Node9</title>
<path fill="none" stroke="midnightblue" d="M338.262,-117.274C383.573,-110.666 479.523,-95.8889 570.366,-75.9572"/>
<polygon fill="midnightblue" stroke="midnightblue" points="571.27,-79.3419 580.274,-73.758 569.753,-72.5083 571.27,-79.3419"/>
</g>
<!-- Node9&#45;&gt;Node5 -->
<g id="edge12" class="edge"><title>Node9&#45;&gt;Node5</title>
<path fill="none" stroke="midnightblue" d="M580.279,-58.2171C577.17,-57.4204 574.017,-56.6582 571,-56 491.418,-38.6371 397.483,-24.5321 343.127,-16.9871"/>
<polygon fill="midnightblue" stroke="midnightblue" points="343.509,-13.5067 333.125,-15.6109 342.555,-20.4414 343.509,-13.5067"/>
</g>
<!-- Node10 -->
<g id="node10" class="node"><title>Node10</title>
<polygon fill="white" stroke="#bfbfbf" points="387.5,-0.5 387.5,-19.5 512.5,-19.5 512.5,-0.5 387.5,-0.5"/>
<text text-anchor="middle" x="450" y="-7.5" font-family="Helvetica,sans-Serif" font-size="10.00">net/inet_timewait_sock.h</text>
</g>
<!-- Node9&#45;&gt;Node10 -->
<g id="edge9" class="edge"><title>Node9&#45;&gt;Node10</title>
<path fill="none" stroke="midnightblue" d="M580.275,-56.6808C554.539,-47.6564 513.228,-33.1709 484.035,-22.9345"/>
<polygon fill="midnightblue" stroke="midnightblue" points="484.855,-19.5131 474.26,-19.5069 482.539,-26.1188 484.855,-19.5131"/>
</g>
<!-- Node11 -->
<g id="node11" class="node"><title>Node11</title>
<polygon fill="white" stroke="#bfbfbf" points="531,-0.5 531,-19.5 641,-19.5 641,-0.5 531,-0.5"/>
<text text-anchor="middle" x="586" y="-7.5" font-family="Helvetica,sans-Serif" font-size="10.00">net/inet_hashtables.h</text>
</g>
<!-- Node9&#45;&gt;Node11 -->
<g id="edge10" class="edge"><title>Node9&#45;&gt;Node11</title>
<path fill="none" stroke="midnightblue" d="M601.028,-56.083C598.616,-48.8486 595.136,-38.4087 592.132,-29.3968"/>
<polygon fill="midnightblue" stroke="midnightblue" points="595.4,-28.1311 588.917,-19.7511 588.759,-30.3447 595.4,-28.1311"/>
</g>
<!-- Node12 -->
<g id="node12" class="node"><title>Node12</title>
<polygon fill="white" stroke="#bfbfbf" points="659,-0.5 659,-19.5 783,-19.5 783,-0.5 659,-0.5"/>
<text text-anchor="middle" x="721" y="-7.5" font-family="Helvetica,sans-Serif" font-size="10.00">uapi/asm&#45;generic/errno.h</text>
</g>
<!-- Node9&#45;&gt;Node12 -->
<g id="edge11" class="edge"><title>Node9&#45;&gt;Node12</title>
<path fill="none" stroke="midnightblue" d="M622.539,-56.4435C641.623,-47.6356 671.575,-33.8116 693.436,-23.722"/>
<polygon fill="midnightblue" stroke="midnightblue" points="694.935,-26.8849 702.548,-19.5164 692.001,-20.5292 694.935,-26.8849"/>
</g>
<!-- Node13 -->
<g id="node13" class="node"><title>Node13</title>
<polygon fill="white" stroke="#bfbfbf" points="801,-0.5 801,-19.5 891,-19.5 891,-0.5 801,-0.5"/>
<text text-anchor="middle" x="846" y="-7.5" font-family="Helvetica,sans-Serif" font-size="10.00">net/netns/gmtp.h</text>
</g>
<!-- Node9&#45;&gt;Node13 -->
<g id="edge13" class="edge"><title>Node9&#45;&gt;Node13</title>
<path fill="none" stroke="midnightblue" d="M627.645,-59.7239C666.892,-50.9662 746.257,-33.2568 797.72,-21.7731"/>
<polygon fill="midnightblue" stroke="midnightblue" points="798.623,-25.1578 807.621,-19.5639 797.099,-18.3258 798.623,-25.1578"/>
</g>
</g>
</svg>
