<?xml version="1.0" encoding="UTF-8" standalone="no"?>
<!DOCTYPE svg PUBLIC "-//W3C//DTD SVG 1.1//EN"
 "http://www.w3.org/Graphics/SVG/1.1/DTD/svg11.dtd">
<!-- Generated by graphviz version 2.38.0 (20140413.2041)
 -->
<!-- Title: G Pages: 1 -->
<svg width="874pt" height="140pt"
 viewBox="0.00 0.00 874.00 140.00" xmlns="http://www.w3.org/2000/svg" xmlns:xlink="http://www.w3.org/1999/xlink">
<g id="graph0" class="graph" transform="scale(1 1) rotate(0) translate(4 136)">
<title>G</title>
<polygon fill="white" stroke="none" points="-4,4 -4,-136 870,-136 870,4 -4,4"/>
<!-- Node1 -->
<g id="node1" class="node"><title>Node1</title>
<polygon fill="#bfbfbf" stroke="black" points="278.5,-112.5 278.5,-131.5 325.5,-131.5 325.5,-112.5 278.5,-112.5"/>
<text text-anchor="middle" x="302" y="-119.5" font-family="Helvetica,sans-Serif" font-size="10.00">proto.c</text>
</g>
<!-- Node2 -->
<g id="node2" class="node"><title>Node2</title>
<polygon fill="white" stroke="#bfbfbf" points="0,-56.5 0,-75.5 70,-75.5 70,-56.5 0,-56.5"/>
<text text-anchor="middle" x="35" y="-63.5" font-family="Helvetica,sans-Serif" font-size="10.00">asm/ioctls.h</text>
</g>
<!-- Node1&#45;&gt;Node2 -->
<g id="edge1" class="edge"><title>Node1&#45;&gt;Node2</title>
<path fill="none" stroke="midnightblue" d="M278.233,-116.225C239.136,-108.367 158.542,-92.147 80.1109,-76.2217"/>
<polygon fill="midnightblue" stroke="midnightblue" points="80.5594,-72.7414 70.0627,-74.1806 79.1659,-79.6013 80.5594,-72.7414"/>
</g>
<!-- Node3 -->
<g id="node3" class="node"><title>Node3</title>
<polygon fill="white" stroke="#bfbfbf" points="88.5,-56.5 88.5,-75.5 149.5,-75.5 149.5,-56.5 88.5,-56.5"/>
<text text-anchor="middle" x="119" y="-63.5" font-family="Helvetica,sans-Serif" font-size="10.00">linux/init.h</text>
</g>
<!-- Node1&#45;&gt;Node3 -->
<g id="edge2" class="edge"><title>Node1&#45;&gt;Node3</title>
<path fill="none" stroke="midnightblue" d="M278.451,-114.051C247.92,-105.042 194.267,-89.21 157.707,-78.4217"/>
<polygon fill="midnightblue" stroke="midnightblue" points="158.463,-74.9958 147.882,-75.5225 156.482,-81.7096 158.463,-74.9958"/>
</g>
<!-- Node4 -->
<g id="node4" class="node"><title>Node4</title>
<polygon fill="white" stroke="#bfbfbf" points="168,-56.5 168,-75.5 248,-75.5 248,-56.5 168,-56.5"/>
<text text-anchor="middle" x="208" y="-63.5" font-family="Helvetica,sans-Serif" font-size="10.00">linux/module.h</text>
</g>
<!-- Node1&#45;&gt;Node4 -->
<g id="edge3" class="edge"><title>Node1&#45;&gt;Node4</title>
<path fill="none" stroke="midnightblue" d="M286.897,-112.324C272.097,-103.822 249.306,-90.7288 232.018,-80.7975"/>
<polygon fill="midnightblue" stroke="midnightblue" points="233.48,-77.6009 223.065,-75.6545 229.993,-83.6707 233.48,-77.6009"/>
</g>
<!-- Node5 -->
<g id="node5" class="node"><title>Node5</title>
<polygon fill="white" stroke="#bfbfbf" points="266,-56.5 266,-75.5 338,-75.5 338,-56.5 266,-56.5"/>
<text text-anchor="middle" x="302" y="-63.5" font-family="Helvetica,sans-Serif" font-size="10.00">linux/types.h</text>
</g>
<!-- Node1&#45;&gt;Node5 -->
<g id="edge4" class="edge"><title>Node1&#45;&gt;Node5</title>
<path fill="none" stroke="midnightblue" d="M302,-112.083C302,-105.006 302,-94.8611 302,-85.9865"/>
<polygon fill="midnightblue" stroke="midnightblue" points="305.5,-85.751 302,-75.7511 298.5,-85.7511 305.5,-85.751"/>
</g>
<!-- Node6 -->
<g id="node6" class="node"><title>Node6</title>
<polygon fill="white" stroke="#bfbfbf" points="274,-0.5 274,-19.5 384,-19.5 384,-0.5 274,-0.5"/>
<text text-anchor="middle" x="329" y="-7.5" font-family="Helvetica,sans-Serif" font-size="10.00">net/inet_hashtables.h</text>
</g>
<!-- Node1&#45;&gt;Node6 -->
<g id="edge5" class="edge"><title>Node1&#45;&gt;Node6</title>
<path fill="none" stroke="midnightblue" d="M315.064,-112.436C325.914,-104.471 340.573,-91.5154 347,-76 353.427,-60.4828 347.001,-41.9482 340.108,-28.649"/>
<polygon fill="midnightblue" stroke="midnightblue" points="342.955,-26.5771 334.95,-19.6362 336.879,-30.0539 342.955,-26.5771"/>
</g>
<!-- Node7 -->
<g id="node7" class="node"><title>Node7</title>
<polygon fill="white" stroke="#bfbfbf" points="394,-56.5 394,-75.5 456,-75.5 456,-56.5 394,-56.5"/>
<text text-anchor="middle" x="425" y="-63.5" font-family="Helvetica,sans-Serif" font-size="10.00">net/sock.h</text>
</g>
<!-- Node1&#45;&gt;Node7 -->
<g id="edge6" class="edge"><title>Node1&#45;&gt;Node7</title>
<path fill="none" stroke="midnightblue" d="M321.49,-112.444C341.642,-103.596 373.323,-89.6875 396.331,-79.5865"/>
<polygon fill="midnightblue" stroke="midnightblue" points="397.852,-82.7411 405.601,-75.5164 395.038,-76.3316 397.852,-82.7411"/>
</g>
<!-- Node8 -->
<g id="node8" class="node"><title>Node8</title>
<g id="a_node8"><a xlink:href="gmtp_8h.html" target="_top" xlink:title="gmtp.h">
<polygon fill="white" stroke="black" points="547.5,-56.5 547.5,-75.5 594.5,-75.5 594.5,-56.5 547.5,-56.5"/>
<text text-anchor="middle" x="571" y="-63.5" font-family="Helvetica,sans-Serif" font-size="10.00">gmtp.h</text>
</a>
</g>
</g>
<!-- Node1&#45;&gt;Node8 -->
<g id="edge7" class="edge"><title>Node1&#45;&gt;Node8</title>
<path fill="none" stroke="midnightblue" d="M325.872,-116.208C373.829,-106.581 481.99,-84.8682 537.197,-73.7856"/>
<polygon fill="midnightblue" stroke="midnightblue" points="538.066,-77.1812 547.182,-71.7814 536.688,-70.3181 538.066,-77.1812"/>
</g>
<!-- Node8&#45;&gt;Node6 -->
<g id="edge9" class="edge"><title>Node8&#45;&gt;Node6</title>
<path fill="none" stroke="midnightblue" d="M547.355,-59.7239C508.108,-50.9662 428.743,-33.2568 377.28,-21.7731"/>
<polygon fill="midnightblue" stroke="midnightblue" points="377.901,-18.3258 367.379,-19.5639 376.377,-25.1578 377.901,-18.3258"/>
</g>
<!-- Node9 -->
<g id="node9" class="node"><title>Node9</title>
<polygon fill="white" stroke="#bfbfbf" points="402.5,-0.5 402.5,-19.5 527.5,-19.5 527.5,-0.5 402.5,-0.5"/>
<text text-anchor="middle" x="465" y="-7.5" font-family="Helvetica,sans-Serif" font-size="10.00">net/inet_timewait_sock.h</text>
</g>
<!-- Node8&#45;&gt;Node9 -->
<g id="edge8" class="edge"><title>Node8&#45;&gt;Node9</title>
<path fill="none" stroke="midnightblue" d="M553.969,-56.324C536.97,-47.6641 510.624,-34.2424 491.007,-24.249"/>
<polygon fill="midnightblue" stroke="midnightblue" points="492.488,-21.0752 481.988,-19.6545 489.31,-27.3125 492.488,-21.0752"/>
</g>
<!-- Node10 -->
<g id="node10" class="node"><title>Node10</title>
<polygon fill="white" stroke="#bfbfbf" points="546,-0.5 546,-19.5 670,-19.5 670,-0.5 546,-0.5"/>
<text text-anchor="middle" x="608" y="-7.5" font-family="Helvetica,sans-Serif" font-size="10.00">uapi/asm&#45;generic/errno.h</text>
</g>
<!-- Node8&#45;&gt;Node10 -->
<g id="edge10" class="edge"><title>Node8&#45;&gt;Node10</title>
<path fill="none" stroke="midnightblue" d="M577.11,-56.083C582.282,-48.5341 589.846,-37.4948 596.194,-28.2298"/>
<polygon fill="midnightblue" stroke="midnightblue" points="599.239,-29.9787 602.004,-19.7511 593.464,-26.0221 599.239,-29.9787"/>
</g>
<!-- Node11 -->
<g id="node11" class="node"><title>Node11</title>
<polygon fill="white" stroke="#bfbfbf" points="688,-0.5 688,-19.5 758,-19.5 758,-0.5 688,-0.5"/>
<text text-anchor="middle" x="723" y="-7.5" font-family="Helvetica,sans-Serif" font-size="10.00">linux/gmtp.h</text>
</g>
<!-- Node8&#45;&gt;Node11 -->
<g id="edge11" class="edge"><title>Node8&#45;&gt;Node11</title>
<path fill="none" stroke="midnightblue" d="M594.75,-56.5625C620.145,-47.5408 660.624,-33.1599 689.306,-22.9702"/>
<polygon fill="midnightblue" stroke="midnightblue" points="690.664,-26.2022 698.915,-19.5565 688.32,-19.6061 690.664,-26.2022"/>
</g>
<!-- Node12 -->
<g id="node12" class="node"><title>Node12</title>
<polygon fill="white" stroke="#bfbfbf" points="776,-0.5 776,-19.5 866,-19.5 866,-0.5 776,-0.5"/>
<text text-anchor="middle" x="821" y="-7.5" font-family="Helvetica,sans-Serif" font-size="10.00">net/netns/gmtp.h</text>
</g>
<!-- Node8&#45;&gt;Node12 -->
<g id="edge12" class="edge"><title>Node8&#45;&gt;Node12</title>
<path fill="none" stroke="midnightblue" d="M594.519,-59.9198C634.829,-51.2129 717.935,-33.2619 771.488,-21.6946"/>
<polygon fill="midnightblue" stroke="midnightblue" points="772.419,-25.0743 781.455,-19.5418 770.941,-18.2321 772.419,-25.0743"/>
</g>
</g>
</svg>
